<mxfile host="Electron" modified="2024-07-01T14:20:28.546Z" agent="Mozilla/5.0 (Macintosh; Intel Mac OS X 10_15_7) AppleWebKit/537.36 (KHTML, like Gecko) draw.io/21.2.8 Chrome/112.0.5615.165 Electron/24.2.0 Safari/537.36" etag="2RUzKYGnV8gm4rL8q0-6" version="21.2.8" type="device">
  <diagram name="Page-1" id="A_R1ksriTNdyYSGnAM3n">
    <mxGraphModel dx="500" dy="377" grid="0" gridSize="10" guides="1" tooltips="1" connect="1" arrows="1" fold="1" page="1" pageScale="1" pageWidth="1169" pageHeight="827" math="0" shadow="0">
      <root>
        <mxCell id="0" />
        <mxCell id="1" parent="0" />
        <mxCell id="1vNkuXaYnxZmw4keYtQA-1" value="&lt;font style=&quot;font-size: 20px;&quot;&gt;Client&lt;/font&gt;" style="rounded=0;whiteSpace=wrap;html=1;" parent="1" vertex="1">
          <mxGeometry x="240" y="80" width="120" height="60" as="geometry" />
        </mxCell>
        <mxCell id="1vNkuXaYnxZmw4keYtQA-2" value="&lt;font style=&quot;font-size: 20px;&quot;&gt;Server&lt;/font&gt;" style="rounded=0;whiteSpace=wrap;html=1;" parent="1" vertex="1">
          <mxGeometry x="480" y="80" width="120" height="60" as="geometry" />
        </mxCell>
        <mxCell id="1vNkuXaYnxZmw4keYtQA-3" value="" style="endArrow=none;html=1;rounded=0;entryX=0.5;entryY=1;entryDx=0;entryDy=0;" parent="1" target="1vNkuXaYnxZmw4keYtQA-1" edge="1">
          <mxGeometry width="50" height="50" relative="1" as="geometry">
            <mxPoint x="300" y="404" as="sourcePoint" />
            <mxPoint x="540" y="290" as="targetPoint" />
          </mxGeometry>
        </mxCell>
        <mxCell id="1vNkuXaYnxZmw4keYtQA-4" value="" style="endArrow=none;html=1;rounded=0;entryX=0.5;entryY=1;entryDx=0;entryDy=0;" parent="1" target="1vNkuXaYnxZmw4keYtQA-2" edge="1">
          <mxGeometry width="50" height="50" relative="1" as="geometry">
            <mxPoint x="540" y="420" as="sourcePoint" />
            <mxPoint x="550" y="160" as="targetPoint" />
          </mxGeometry>
        </mxCell>
        <mxCell id="1vNkuXaYnxZmw4keYtQA-5" value="" style="endArrow=classic;html=1;rounded=0;" parent="1" edge="1">
          <mxGeometry relative="1" as="geometry">
            <mxPoint x="300" y="180" as="sourcePoint" />
            <mxPoint x="540" y="180" as="targetPoint" />
          </mxGeometry>
        </mxCell>
        <mxCell id="1vNkuXaYnxZmw4keYtQA-6" value="&lt;font style=&quot;font-size: 12px;&quot;&gt;1. Autenticazione&lt;br&gt;{username, password}&lt;/font&gt;" style="edgeLabel;resizable=0;html=1;align=center;verticalAlign=middle;" parent="1vNkuXaYnxZmw4keYtQA-5" connectable="0" vertex="1">
          <mxGeometry relative="1" as="geometry">
            <mxPoint y="-20" as="offset" />
          </mxGeometry>
        </mxCell>
        <mxCell id="1vNkuXaYnxZmw4keYtQA-11" value="" style="curved=1;endArrow=classic;html=1;rounded=0;" parent="1" edge="1">
          <mxGeometry width="50" height="50" relative="1" as="geometry">
            <mxPoint x="550" y="180" as="sourcePoint" />
            <mxPoint x="550" y="220" as="targetPoint" />
            <Array as="points">
              <mxPoint x="570" y="180" />
              <mxPoint x="570" y="220" />
            </Array>
          </mxGeometry>
        </mxCell>
        <mxCell id="1vNkuXaYnxZmw4keYtQA-12" value="&lt;font style=&quot;font-size: 12px;&quot;&gt;2. Creazione&amp;nbsp;&lt;br&gt;della&lt;br&gt;sessione&lt;br&gt;&lt;/font&gt;" style="edgeLabel;html=1;align=center;verticalAlign=middle;resizable=0;points=[];" parent="1vNkuXaYnxZmw4keYtQA-11" vertex="1" connectable="0">
          <mxGeometry x="-0.2194" y="-2" relative="1" as="geometry">
            <mxPoint x="42" y="13" as="offset" />
          </mxGeometry>
        </mxCell>
        <mxCell id="1vNkuXaYnxZmw4keYtQA-14" value="" style="endArrow=classic;html=1;rounded=0;" parent="1" edge="1">
          <mxGeometry relative="1" as="geometry">
            <mxPoint x="540" y="220" as="sourcePoint" />
            <mxPoint x="300" y="220" as="targetPoint" />
          </mxGeometry>
        </mxCell>
        <mxCell id="1vNkuXaYnxZmw4keYtQA-15" value="&lt;font style=&quot;font-size: 12px;&quot;&gt;3.&amp;nbsp;Set-Cookie: session = 123&lt;/font&gt;" style="edgeLabel;resizable=0;html=1;align=center;verticalAlign=middle;" parent="1vNkuXaYnxZmw4keYtQA-14" connectable="0" vertex="1">
          <mxGeometry relative="1" as="geometry">
            <mxPoint y="-10" as="offset" />
          </mxGeometry>
        </mxCell>
        <mxCell id="1vNkuXaYnxZmw4keYtQA-16" value="" style="endArrow=classic;html=1;rounded=0;" parent="1" edge="1">
          <mxGeometry relative="1" as="geometry">
            <mxPoint x="300" y="280" as="sourcePoint" />
            <mxPoint x="540" y="280" as="targetPoint" />
          </mxGeometry>
        </mxCell>
        <mxCell id="1vNkuXaYnxZmw4keYtQA-17" value="&lt;font style=&quot;&quot;&gt;4. Richiesta autenticata&lt;br&gt;&lt;span style=&quot;font-size: 12px;&quot;&gt;Cookie: session = 123&lt;/span&gt;&lt;br&gt;&lt;/font&gt;" style="edgeLabel;resizable=0;html=1;align=center;verticalAlign=middle;" parent="1vNkuXaYnxZmw4keYtQA-16" connectable="0" vertex="1">
          <mxGeometry relative="1" as="geometry">
            <mxPoint y="-20" as="offset" />
          </mxGeometry>
        </mxCell>
        <mxCell id="1vNkuXaYnxZmw4keYtQA-18" value="" style="endArrow=classic;html=1;rounded=0;" parent="1" edge="1">
          <mxGeometry relative="1" as="geometry">
            <mxPoint x="540" y="320" as="sourcePoint" />
            <mxPoint x="300" y="320" as="targetPoint" />
          </mxGeometry>
        </mxCell>
        <mxCell id="1vNkuXaYnxZmw4keYtQA-19" value="&lt;font style=&quot;font-size: 12px;&quot;&gt;Risorsa protetta&lt;/font&gt;" style="edgeLabel;resizable=0;html=1;align=center;verticalAlign=middle;" parent="1vNkuXaYnxZmw4keYtQA-18" connectable="0" vertex="1">
          <mxGeometry relative="1" as="geometry">
            <mxPoint y="-10" as="offset" />
          </mxGeometry>
        </mxCell>
        <mxCell id="1vNkuXaYnxZmw4keYtQA-20" value="" style="curved=1;endArrow=classic;html=1;rounded=0;" parent="1" edge="1">
          <mxGeometry width="50" height="50" relative="1" as="geometry">
            <mxPoint x="550" y="280" as="sourcePoint" />
            <mxPoint x="550" y="320" as="targetPoint" />
            <Array as="points">
              <mxPoint x="570" y="280" />
              <mxPoint x="570" y="320" />
            </Array>
          </mxGeometry>
        </mxCell>
        <mxCell id="1vNkuXaYnxZmw4keYtQA-21" value="&lt;font style=&quot;font-size: 12px;&quot;&gt;5. Ricerca&lt;br&gt;e verifica&lt;br&gt;della&lt;br&gt;sessione&lt;br&gt;&lt;/font&gt;" style="edgeLabel;html=1;align=center;verticalAlign=middle;resizable=0;points=[];" parent="1vNkuXaYnxZmw4keYtQA-20" vertex="1" connectable="0">
          <mxGeometry x="-0.2194" y="-2" relative="1" as="geometry">
            <mxPoint x="42" y="9" as="offset" />
          </mxGeometry>
        </mxCell>
        <mxCell id="1vNkuXaYnxZmw4keYtQA-22" value="" style="curved=1;endArrow=classic;html=1;rounded=0;" parent="1" edge="1">
          <mxGeometry width="50" height="50" relative="1" as="geometry">
            <mxPoint x="290" y="220" as="sourcePoint" />
            <mxPoint x="290" y="280" as="targetPoint" />
            <Array as="points">
              <mxPoint x="270" y="220" />
              <mxPoint x="270" y="280" />
            </Array>
          </mxGeometry>
        </mxCell>
        <mxCell id="1vNkuXaYnxZmw4keYtQA-23" value="&lt;font style=&quot;font-size: 12px;&quot;&gt;Memorizzazione&lt;/font&gt;" style="edgeLabel;html=1;align=center;verticalAlign=middle;resizable=0;points=[];" parent="1vNkuXaYnxZmw4keYtQA-22" vertex="1" connectable="0">
          <mxGeometry x="0.0169" relative="1" as="geometry">
            <mxPoint x="-20" y="-41" as="offset" />
          </mxGeometry>
        </mxCell>
        <mxCell id="U_ebDbrkd8lH-wg_JWQ2-1" value="" style="curved=1;endArrow=classic;html=1;rounded=0;" edge="1" parent="1">
          <mxGeometry width="50" height="50" relative="1" as="geometry">
            <mxPoint x="290" y="350" as="sourcePoint" />
            <mxPoint x="290" y="180" as="targetPoint" />
            <Array as="points">
              <mxPoint x="180" y="350" />
              <mxPoint x="180" y="180" />
            </Array>
          </mxGeometry>
        </mxCell>
        <mxCell id="U_ebDbrkd8lH-wg_JWQ2-3" value="&lt;font style=&quot;font-size: 12px;&quot;&gt;6. Nuova&lt;br&gt;autenticazione&lt;/font&gt;" style="edgeLabel;html=1;align=center;verticalAlign=middle;resizable=0;points=[];" vertex="1" connectable="0" parent="U_ebDbrkd8lH-wg_JWQ2-1">
          <mxGeometry x="-0.2906" y="-19" relative="1" as="geometry">
            <mxPoint x="31" y="48" as="offset" />
          </mxGeometry>
        </mxCell>
        <mxCell id="U_ebDbrkd8lH-wg_JWQ2-5" value="" style="endArrow=none;html=1;rounded=0;entryDx=0;entryDy=0;" edge="1" parent="1">
          <mxGeometry width="50" height="50" relative="1" as="geometry">
            <mxPoint x="300" y="420" as="sourcePoint" />
            <mxPoint x="300" y="404" as="targetPoint" />
          </mxGeometry>
        </mxCell>
        <mxCell id="U_ebDbrkd8lH-wg_JWQ2-11" value="" style="endArrow=classic;html=1;rounded=0;" edge="1" parent="1">
          <mxGeometry relative="1" as="geometry">
            <mxPoint x="300" y="380" as="sourcePoint" />
            <mxPoint x="540" y="380" as="targetPoint" />
          </mxGeometry>
        </mxCell>
        <mxCell id="U_ebDbrkd8lH-wg_JWQ2-12" value="&lt;font style=&quot;font-size: 12px;&quot;&gt;7. Eliminazione dal client&lt;br&gt;e notifica al server&lt;br&gt;&lt;/font&gt;" style="edgeLabel;resizable=0;html=1;align=center;verticalAlign=middle;" connectable="0" vertex="1" parent="U_ebDbrkd8lH-wg_JWQ2-11">
          <mxGeometry relative="1" as="geometry">
            <mxPoint y="-20" as="offset" />
          </mxGeometry>
        </mxCell>
      </root>
    </mxGraphModel>
  </diagram>
</mxfile>
